<svg xmlns="http://www.w3.org/2000/svg" viewBox="0 0 982 260" fill="currentColor"><g><g><path d="M981.07 188.17h-24.42l-29.05-41.08h-26.01v41.08h-20.54V70.31h52.53c6.74 0 12.83.87 18.27 2.61 5.45 1.74 10.05 4.21 13.81 7.41s6.65 7.13 8.67 11.78c2.02 4.66 3.03 9.85 3.03 15.58 0 4.94-.7 9.34-2.1 13.21-1.41 3.88-3.35 7.3-5.81 10.28-2.47 2.97-5.42 5.5-8.84 7.57-3.43 2.08-7.22 3.68-11.37 4.8zM932 128.73c7.42 0 13.34-1.8 17.73-5.41 4.39-3.6 6.58-8.45 6.58-14.54 0-6.54-2.14-11.47-6.41-14.79-4.28-3.33-10.31-4.99-18.08-4.99h-30.23v39.73zm-125.03 48.16l-13.3 14.82-14.15-12.63c-5.05 3.48-10.55 6.2-16.5 8.16-5.95 1.97-12.4 2.95-19.36 2.95-9.09 0-17.4-1.6-24.92-4.8-7.52-3.2-13.97-7.55-19.36-13.05-5.39-5.5-9.6-11.95-12.63-19.36-3.03-7.41-4.54-15.26-4.54-23.57s1.51-16.17 4.54-23.57c3.03-7.41 7.3-13.9 12.8-19.45 5.5-5.56 12.01-9.96 19.53-13.22 7.52-3.25 15.83-4.88 24.92-4.88 9.09 0 17.4 1.6 24.92 4.8 7.52 3.2 13.97 7.55 19.36 13.05 5.39 5.5 9.6 11.95 12.63 19.36 3.03 7.41 4.54 15.27 4.54 23.57 0 6.74-1.04 13.19-3.11 19.36-2.08 6.18-5.03 11.85-8.84 17.01zm-24.75-35.61c1.01-3.76 1.51-7.72 1.51-11.87 0-5.73-.98-11.14-2.94-16.25-1.97-5.11-4.72-9.57-8.25-13.39-3.54-3.81-7.78-6.84-12.71-9.09-4.95-2.24-10.33-3.37-16.17-3.37-5.84 0-11.2 1.1-16.08 3.29-4.88 2.19-9.06 5.16-12.54 8.92-3.48 3.76-6.21 8.2-8.17 13.3-1.96 5.11-2.94 10.53-2.94 16.25 0 5.73.98 11.14 2.94 16.25 1.96 5.11 4.72 9.57 8.25 13.38 3.54 3.82 7.77 6.85 12.71 9.1 4.94 2.24 10.33 3.36 16.17 3.36 3.93 0 7.58-.5 10.94-1.51 3.37-1.01 6.46-2.41 9.26-4.21L744 148.27l13.3-15.16 20.37 18.52c2.02-3.14 3.54-6.59 4.55-10.35zM607.28 105.5c3.03 7.41 4.55 15.27 4.55 23.57 0 8.31-1.52 16.17-4.55 23.57-3.03 7.41-7.3 13.89-12.8 19.45-5.5 5.56-12.01 9.96-19.53 13.22-7.52 3.25-15.82 4.88-24.92 4.88-9.09 0-17.4-1.6-24.91-4.8-7.53-3.2-13.98-7.55-19.37-13.05-5.39-5.5-9.59-11.95-12.63-19.36-3.03-7.41-4.54-15.26-4.54-23.57s1.51-16.17 4.54-23.57c3.04-7.41 7.3-13.9 12.8-19.45 5.5-5.56 12.01-9.96 19.53-13.22 7.52-3.25 15.83-4.88 24.92-4.88 9.09 0 17.4 1.6 24.92 4.8 7.52 3.2 13.98 7.55 19.36 13.05 5.39 5.5 9.6 11.95 12.63 19.36zm-20.12 40.16c1.96-5.11 2.95-10.53 2.95-16.25 0-5.73-.99-11.14-2.95-16.25-1.96-5.11-4.71-9.57-8.25-13.39-3.54-3.81-7.77-6.84-12.71-9.09-4.94-2.24-10.33-3.37-16.17-3.37-5.83 0-11.19 1.1-16.07 3.29-4.89 2.19-9.07 5.16-12.55 8.92-3.48 3.76-6.2 8.2-8.16 13.3-1.97 5.11-2.95 10.53-2.95 16.25 0 5.73.98 11.14 2.95 16.25 1.96 5.11 4.71 9.57 8.25 13.38 3.53 3.82 7.77 6.85 12.71 9.1 4.94 2.24 10.32 3.36 16.16 3.36s11.2-1.09 16.08-3.28c4.88-2.19 9.06-5.16 12.54-8.92 3.48-3.76 6.21-8.2 8.17-13.3zm-165.59 42.51h-24.42l-29.05-41.08h-26v41.08h-20.55V70.31h52.54c6.73 0 12.82.87 18.27 2.61 5.44 1.74 10.04 4.21 13.8 7.41 3.76 3.2 6.65 7.13 8.67 11.78 2.02 4.66 3.03 9.85 3.03 15.58 0 4.94-.7 9.34-2.1 13.21-1.41 3.88-3.34 7.3-5.81 10.28-2.47 2.97-5.42 5.5-8.84 7.57-3.42 2.08-7.21 3.68-11.36 4.8zm-49.07-59.44c7.43 0 13.34-1.8 17.73-5.41 4.39-3.6 6.59-8.45 6.59-14.54 0-6.54-2.14-11.47-6.42-14.79-4.28-3.33-10.3-4.99-18.07-4.99H342.1v39.73z"/></g><g><path d="M106.72 175.85l-40.76 66.74C27.09 220.13.93 178.12.93 130 .93 58.23 59.11.05 130.88.05c20.94 0 40.71 4.95 58.23 13.75l-99.18 88.46h44.15l-67.54 73.59z"/></g><g><path d="M260.83 130c0 71.771-58.18 129.95-129.95 129.95-21.05 0-40.93-5.01-58.52-13.89l103.33-94.27h-42.93L198.801 85h-45l41.87-67.67c38.95 22.44 65.16 64.49 65.16 112.67z"/></g></g></svg>
