<?xml version="1.0" standalone="no"?>
<!DOCTYPE svg PUBLIC "-//W3C//DTD SVG 20010904//EN"
 "http://www.w3.org/TR/2001/REC-SVG-20010904/DTD/svg10.dtd">
<svg version="1.0" xmlns="http://www.w3.org/2000/svg"
 width="522.000000pt" height="522.000000pt" viewBox="0 0 522.000000 522.000000"
 preserveAspectRatio="xMidYMid meet">
<metadata>
Created by potrace 1.14, written by Peter Selinger 2001-2017
</metadata>
<g transform="translate(0.000000,522.000000) scale(0.100000,-0.100000)"
fill="#000000" stroke="none">
<path d="M2438 5205 c-2 -2 -37 -6 -78 -9 -41 -4 -88 -9 -105 -12 -31 -5 -188
-34 -217 -39 -9 -2 -51 -13 -93 -25 -42 -12 -85 -23 -95 -25 -10 -2 -27 -8
-37 -13 -10 -6 -22 -11 -28 -12 -105 -24 -428 -177 -552 -261 -23 -16 -44 -29
-48 -29 -4 0 -12 -6 -20 -12 -7 -7 -48 -38 -90 -68 -43 -30 -95 -71 -116 -90
-21 -19 -57 -51 -80 -70 -56 -48 -199 -195 -262 -270 -42 -50 -167 -219 -167
-226 0 -4 -10 -21 -23 -38 -43 -58 -186 -322 -192 -356 0 -3 -11 -26 -22 -52
-20 -44 -91 -250 -97 -280 -1 -7 -8 -33 -15 -58 -7 -25 -15 -56 -18 -70 -2
-14 -8 -44 -14 -68 -5 -24 -11 -60 -14 -80 -3 -20 -7 -47 -10 -60 -4 -22 -14
-112 -21 -192 -8 -99 -3 -344 11 -470 13 -124 64 -383 85 -435 9 -21 32 -93
36 -110 3 -14 51 -141 72 -190 31 -72 134 -270 149 -287 9 -10 13 -18 10 -18
-4 0 23 -44 60 -97 94 -138 107 -157 114 -163 4 -3 30 -34 58 -70 83 -104 229
-249 341 -340 30 -25 57 -48 60 -51 3 -3 37 -27 75 -54 39 -27 72 -52 75 -55
7 -7 42 -29 60 -37 8 -4 17 -9 20 -12 3 -3 19 -14 37 -24 l32 -18 38 62 c21
34 47 76 58 93 17 25 114 185 246 404 102 169 280 459 287 467 5 6 11 15 13
20 2 6 20 36 39 68 19 32 40 66 45 75 6 9 27 43 48 76 21 32 36 61 32 64 -3 3
-181 5 -395 5 -215 0 -390 3 -390 6 0 3 24 31 53 62 74 80 149 162 247 269 47
51 96 105 110 120 24 26 194 210 235 256 11 12 60 65 109 118 49 53 98 107
108 119 17 19 141 154 228 247 14 15 61 67 105 115 44 49 87 95 95 104 58 62
96 56 -386 56 -239 0 -434 3 -434 6 0 3 15 18 33 34 63 55 182 160 197 175 9
8 49 44 90 80 40 36 83 74 96 85 12 12 53 48 89 80 37 33 77 69 89 80 12 11
55 49 96 85 40 36 83 74 94 85 12 11 57 52 101 90 101 89 140 124 174 155 15
14 55 50 90 80 35 30 85 75 112 100 26 25 71 65 100 90 29 25 70 61 90 80 21
19 56 51 79 70 23 19 54 46 69 60 15 14 65 59 111 100 46 41 94 84 106 95 12
11 52 47 89 79 l67 60 -79 37 c-70 33 -253 105 -293 115 -8 2 -55 15 -105 29
-49 14 -99 27 -110 29 -110 24 -141 29 -225 40 -25 3 -63 9 -85 12 -43 7 -441
14 -447 9z"/>
<path d="M3815 4703 c-54 -87 -113 -181 -131 -210 -19 -28 -34 -54 -34 -56 0
-6 -64 -105 -80 -124 -6 -7 -10 -14 -10 -16 0 -3 -44 -76 -98 -163 -54 -88
-105 -170 -113 -183 -8 -14 -18 -30 -22 -35 -4 -6 -62 -99 -127 -206 l-120
-195 446 -5 445 -5 -333 -337 c-183 -185 -478 -483 -655 -663 -178 -179 -323
-327 -323 -328 0 -2 186 -3 413 -2 226 0 417 -1 424 -3 6 -2 -7 -20 -30 -40
-22 -20 -55 -50 -73 -67 -17 -16 -71 -66 -120 -110 -48 -44 -100 -91 -115
-105 -15 -14 -60 -55 -100 -91 -41 -37 -86 -78 -100 -90 -14 -13 -67 -62 -118
-109 -52 -47 -106 -96 -121 -110 -131 -120 -216 -198 -233 -212 -11 -10 -62
-57 -115 -105 -52 -49 -104 -96 -116 -106 -11 -10 -61 -55 -110 -100 -106 -98
-108 -100 -220 -202 -49 -44 -106 -96 -126 -115 -21 -19 -70 -64 -110 -100
-40 -36 -89 -81 -110 -101 -22 -19 -59 -54 -84 -76 -34 -30 -42 -43 -33 -52 6
-6 14 -11 18 -11 4 0 45 -17 91 -39 76 -35 268 -106 314 -116 11 -2 55 -13 99
-25 44 -11 91 -23 105 -25 14 -3 36 -7 50 -10 14 -3 39 -7 55 -10 17 -2 46 -7
67 -10 81 -13 132 -16 323 -19 122 -2 239 1 300 9 185 23 210 27 216 31 3 2
21 6 40 9 170 30 424 115 604 203 328 160 607 375 846 652 173 201 289 387
422 680 48 105 126 357 151 490 6 29 26 145 31 180 29 195 25 525 -9 740 -4
25 -10 59 -12 75 -8 47 -44 193 -67 270 -11 39 -21 72 -22 75 -3 8 -15 40 -36
94 -10 27 -19 55 -19 62 0 8 -5 14 -12 14 -6 0 -8 3 -5 6 4 4 0 19 -7 33 -7
14 -40 80 -72 145 -32 66 -78 147 -100 182 -23 35 -44 69 -47 76 -5 13 -151
208 -197 263 -42 50 -264 268 -308 303 -124 98 -348 252 -365 252 -3 0 -49
-71 -102 -157z"/>
</g>
</svg>
